<svg width="28" height="33" viewBox="0 0 28 33" fill="none" xmlns="http://www.w3.org/2000/svg">
<g clip-path="url(#clip0_539_3567)">
<path fill-rule="evenodd" clip-rule="evenodd" d="M10.5114 2.32624C8.60724 3.31817 7.04934 4.15754 7.04967 4.19168C7.05052 4.2798 11.6198 6.59386 11.782 6.58822C11.8558 6.58575 12.3909 6.33939 12.9712 6.04084L14.0264 5.4981L15.1788 6.09046L16.3312 6.68293L18.2184 5.83493C21.062 4.55712 21.3573 4.41709 21.311 4.37005C21.2496 4.30763 20.2297 3.7597 17.4625 2.30286C16.1251 1.59876 14.8271 0.908403 14.5779 0.76871C14.3287 0.629017 14.0909 0.516643 14.0493 0.518818C14.0078 0.520994 12.4157 1.33434 10.5114 2.32624ZM2.15965 6.65107L0.177404 7.67497V12.1687C0.177404 14.6402 0.203433 16.6623 0.235361 16.6623C0.267178 16.6623 1.24245 16.2396 2.40257 15.7229L4.5119 14.7834V10.0467L5.54266 10.6083C6.33694 11.0406 7.13171 11.4721 7.92695 11.9027L9.28045 12.6355L9.88272 12.3632C10.2604 12.1921 10.6374 12.0194 11.0136 11.845C11.3043 11.7096 12.0179 11.3882 12.5994 11.1306C13.1808 10.8729 13.7191 10.6137 13.7954 10.5547C13.8968 10.4762 12.6605 9.79304 9.22282 8.02773C6.63155 6.69705 4.42829 5.61254 4.32668 5.61774C4.22507 5.62294 3.24991 6.08788 2.15965 6.65107ZM21.6683 6.93861C20.3183 7.54807 19.2127 8.07108 19.2115 8.10091C19.2103 8.1307 19.9461 8.56821 20.8467 9.07301C21.7473 9.57792 22.4841 10.018 22.4841 10.0512C22.4841 10.0842 21.6872 10.4703 20.7133 10.9094C19.7393 11.3483 17.2775 12.4601 15.2424 13.38L8.42349 16.4623C6.7082 17.2377 5.16207 17.9366 4.98765 18.0156C1.48408 19.6016 0.521088 20.0417 0.388842 20.1173C0.255859 20.1933 0.225738 20.6352 0.202069 22.8529L0.173828 25.498L1.94644 26.4012L3.71902 27.3043L6.17697 26.195C7.52889 25.585 8.63493 25.0539 8.63493 25.0147C8.63493 24.9757 8.38511 24.813 8.07991 24.6529C7.77457 24.4928 7.14428 24.1384 6.67911 23.8652C6.21399 23.592 5.75019 23.3413 5.64836 23.3081C5.54657 23.2749 5.46476 23.2169 5.46641 23.1791C5.46811 23.1414 6.55048 22.6273 7.87154 22.0365C10.4374 20.8893 12.4011 20.0051 16.6167 18.0987C18.5018 17.2464 20.3871 16.3946 22.2727 15.5434C23.9298 14.7954 25.8565 13.9218 26.5543 13.6021L27.8229 13.0208L27.8511 10.3456L27.8795 7.67055L26.0816 6.74774C25.0927 6.24026 24.2475 5.82626 24.2032 5.82778C24.1589 5.82918 23.0182 6.329 21.6683 6.93861ZM27.3412 16.5896C27.0763 16.719 26.553 16.9613 26.1783 17.128C25.8037 17.2947 25.0927 17.6155 24.5985 17.841L23.6999 18.2509L23.6794 20.5994C23.668 21.8911 23.6205 22.9422 23.5737 22.9354C23.4673 22.9196 21.7831 22.0558 20.0901 21.1486C18.8682 20.494 18.7914 20.468 18.5043 20.6102C18.3383 20.6924 17.3462 21.1374 16.2996 21.5991C15.2529 22.0608 14.3625 22.4687 14.3206 22.5057C14.2788 22.5426 16.3853 23.6842 19.0017 25.0429L23.7588 27.5132L25.7909 26.462C26.9084 25.8839 27.8588 25.3565 27.9025 25.2902C28.001 25.1411 27.9926 16.3339 27.894 16.3458C27.855 16.3505 27.6062 16.4602 27.3412 16.5896ZM16.0881 26.9271C15.7356 27.0786 15.3832 27.2304 15.0309 27.3824C13.9671 27.8426 14.1756 27.8579 12.9099 27.2278C12.0669 26.8082 11.7035 26.6787 11.5458 26.7416C11.4275 26.7887 10.4093 27.2468 9.28299 27.7595C8.15675 28.2722 7.19619 28.6917 7.14841 28.6917C6.67587 28.6917 7.46145 29.1611 10.4929 30.6902L14.048 32.4833L15.5438 31.7449C16.3665 31.3387 18.0258 30.5254 19.2313 29.9375C20.4367 29.3494 21.4081 28.8531 21.3899 28.8343C21.3716 28.8157 20.3616 28.297 19.1453 27.6818L16.9339 26.5633L16.0881 26.9271Z" fill="white"/>
</g>
<defs>
<clipPath id="clip0_539_3567">
<rect width="27.8272" height="32" fill="white" transform="translate(0.173828 0.5)"/>
</clipPath>
</defs>
</svg>
