<svg width="28" height="33" viewBox="0 0 28 33" fill="none" xmlns="http://www.w3.org/2000/svg">
<g clip-path="url(#clip0_539_3564)">
<path fill-rule="evenodd" clip-rule="evenodd" d="M16.4862 11.899C17.465 11.4109 18.7106 10.6924 19.9576 9.708C20.2206 10.254 20.2494 10.7305 20.1139 11.1153C20.0179 11.3864 19.837 11.6222 19.5991 11.8099C19.3415 12.0126 19.0198 12.1603 18.6642 12.2401C17.9894 12.3921 17.2016 12.3033 16.4862 11.899ZM16.6559 16.9002L17.9517 17.6487C15.3059 19.1316 14.5866 21.8851 13.7322 24.567C12.8779 21.8851 12.1586 19.1316 9.51293 17.6487L10.8087 16.9002C10.9341 16.8528 11.0412 16.767 11.1148 16.655C11.1884 16.543 11.2246 16.4106 11.2183 16.2767C11.0996 13.7651 11.7778 12.6543 12.6926 11.957C13.0207 11.7071 13.3789 11.5817 13.7322 11.5817C14.0856 11.5817 14.4438 11.7071 14.772 11.957C15.6868 12.6543 16.365 13.7651 16.2463 16.2767C16.24 16.4106 16.2762 16.543 16.3498 16.655C16.4234 16.767 16.5305 16.8528 16.6559 16.9002ZM13.7322 0.5C15.2301 0.540213 16.7316 0.830987 18.0347 1.39664C18.9371 1.78885 19.7792 2.30693 20.5416 2.92645C20.8859 3.20613 21.1695 3.47632 21.4818 3.78736C22.3241 3.81648 23.5552 2.88069 24.1267 2.00507C23.1431 5.2296 18.6548 9.03749 15.5475 10.4946C15.5462 10.494 15.5454 10.4933 15.5444 10.4926C14.9867 10.0668 14.3595 9.85392 13.7322 9.85392C13.1049 9.85392 12.4778 10.0668 11.9202 10.4926C11.9192 10.4932 11.9184 10.4941 11.9171 10.4946C8.80968 9.03749 4.32146 5.2296 3.33789 2.00507C3.9093 2.88069 5.14034 3.81648 5.98269 3.78736C6.29512 3.47643 6.57864 3.20613 6.92285 2.92645C7.6853 2.30693 8.52733 1.78885 9.42973 1.39664C10.733 0.830987 12.2345 0.540213 13.7322 0.5ZM10.9783 11.899C9.99954 11.4109 8.75389 10.6924 7.50696 9.708C7.24402 10.254 7.21522 10.7305 7.35058 11.1153C7.44669 11.3864 7.6276 11.6222 7.86536 11.8099C8.12306 12.0126 8.44477 12.1603 8.8004 12.2401C9.47517 12.3921 10.2629 12.3033 10.9783 11.899Z" fill="white"/>
<path fill-rule="evenodd" clip-rule="evenodd" d="M21.3241 8.5017C22.0106 7.8089 22.6155 7.04208 23.1019 6.35781L23.349 6.82277C24.1443 8.41392 24.5575 9.99866 24.5575 11.7821L24.5558 14.6122L24.5707 16.0793C24.6283 19.681 25.4076 23.3251 27.173 26.6599L23.4794 23.6815L20.866 27.9225L18.1204 25.3379L13.733 32.4578L9.34555 25.338L6.60006 27.9226L3.98662 23.6817L0.292969 26.66C2.0583 23.3252 2.83761 19.6811 2.89531 16.0794L2.91025 14.6123L2.90854 11.7822C2.90854 9.99866 3.32166 8.41392 4.11718 6.82288L4.36411 6.35792C4.85051 7.04218 5.45531 7.8089 6.14193 8.50181L5.92753 8.94714C5.51099 9.8121 5.37307 10.7793 5.69755 11.699C5.90673 12.2915 6.28849 12.7995 6.78065 13.1874C7.25851 13.564 7.82406 13.8179 8.41617 13.9512C8.80187 14.038 9.19483 14.0738 9.58523 14.0616C9.49414 14.578 9.45435 15.1135 9.45179 15.6593L5.96763 17.6716L8.65627 19.1787C8.87117 19.2992 9.07574 19.4372 9.2679 19.5914C11.4845 21.5816 12.8172 27.4693 13.7331 30.3451C14.649 27.4693 15.9816 21.5816 18.1984 19.5914C18.3905 19.4372 18.5951 19.2992 18.81 19.1787L21.4986 17.6716L18.0144 15.6593C18.0118 15.1135 17.972 14.578 17.8809 14.0616C18.2713 14.0738 18.6643 14.038 19.05 13.9512C19.6421 13.8179 20.2077 13.564 20.6855 13.1874C21.1776 12.7995 21.5594 12.2915 21.7685 11.699C22.0931 10.7793 21.955 9.81221 21.5386 8.94714L21.3242 8.50181L21.3241 8.5017Z" fill="white"/>
</g>
<defs>
<clipPath id="clip0_539_3564">
<rect width="26.88" height="32" fill="white" transform="translate(0.292969 0.5)"/>
</clipPath>
</defs>
</svg>
