<svg width="33" height="33" viewBox="0 0 33 33" fill="none" xmlns="http://www.w3.org/2000/svg">
<g clip-path="url(#clip0_539_3561)">
<path d="M16.293 0.5C12.0505 0.5 7.97797 2.18675 4.98047 5.18625C1.9799 8.18696 0.293827 12.2565 0.292969 16.5C0.292969 20.7417 1.98047 24.8142 4.98047 27.8137C7.97797 30.8132 12.0505 32.5 16.293 32.5C20.5355 32.5 24.608 30.8132 27.6055 27.8137C30.6055 24.8142 32.293 20.7417 32.293 16.5C32.293 12.2583 30.6055 8.18575 27.6055 5.18625C24.608 2.18675 20.5355 0.5 16.293 0.5Z" fill="url(#paint0_linear_539_3561)"/>
<path d="M7.53608 16.331C12.2011 14.299 15.3111 12.9593 16.8661 12.312C21.3111 10.4638 22.2336 10.1428 22.8361 10.1319C22.9686 10.1298 23.2636 10.1625 23.4561 10.3181C23.6161 10.4494 23.6611 10.6269 23.6836 10.7515C23.7036 10.876 23.7311 11.1598 23.7086 11.3813C23.4686 13.9113 22.4261 20.0508 21.8961 22.8845C21.6736 24.0835 21.2311 24.4855 20.8036 24.5247C19.8736 24.6102 19.1686 23.9107 18.2686 23.321C16.8611 22.3977 16.0661 21.8233 14.6986 20.9225C13.1186 19.8815 14.1436 19.3093 15.0436 18.3743C15.2786 18.1295 19.3736 14.4058 19.4511 14.068C19.4611 14.0258 19.4711 13.8682 19.3761 13.7852C19.2836 13.702 19.1461 13.7305 19.0461 13.753C18.9036 13.785 16.6561 15.272 12.2961 18.2138C11.6586 18.6523 11.0811 18.866 10.5611 18.8547C9.99108 18.8425 8.89108 18.5318 8.07358 18.2663C7.07358 17.9405 6.27608 17.7683 6.34608 17.215C6.38108 16.927 6.77858 16.6323 7.53608 16.331Z" fill="white"/>
</g>
<defs>
<linearGradient id="paint0_linear_539_3561" x1="1600.29" y1="0.5" x2="1600.29" y2="3200.5" gradientUnits="userSpaceOnUse">
<stop stop-color="#2AABEE"/>
<stop offset="1" stop-color="#229ED9"/>
</linearGradient>
<clipPath id="clip0_539_3561">
<rect width="32" height="32" fill="white" transform="translate(0.292969 0.5)"/>
</clipPath>
</defs>
</svg>
